<?xml version="1.0" encoding="UTF-8"?>
<!DOCTYPE svg PUBLIC "-//W3C//DTD SVG 1.1//EN" "http://www.w3.org/Graphics/SVG/1.1/DTD/svg11.dtd">
<svg xmlns="http://www.w3.org/2000/svg" version="1.1" width="500px" height="500px" style="shape-rendering:geometricPrecision; text-rendering:geometricPrecision; image-rendering:optimizeQuality; fill-rule:evenodd; clip-rule:evenodd" xmlns:xlink="http://www.w3.org/1999/xlink">
<g><path style="opacity:1" fill="#e4d9d7" d="M -0.5,-0.5 C 166.167,-0.5 332.833,-0.5 499.5,-0.5C 499.5,166.167 499.5,332.833 499.5,499.5C 332.833,499.5 166.167,499.5 -0.5,499.5C -0.5,332.833 -0.5,166.167 -0.5,-0.5 Z"/></g>
<g><path style="opacity:1" fill="#dfd5d3" d="M 169.5,239.5 C 170.933,241.558 171.6,243.892 171.5,246.5C 168.848,246.41 166.515,247.076 164.5,248.5C 148.643,252.678 134.143,259.678 121,269.5C 111.227,249.915 101.727,230.248 92.5,210.5C 104.816,193.342 121.482,185.342 142.5,186.5C 150.222,204.946 159.222,222.612 169.5,239.5 Z"/></g>
<g><path style="opacity:1" fill="#6d7c81" d="M 201.5,205.5 C 196.305,205.179 191.305,205.513 186.5,206.5C 185.957,206.44 185.624,206.107 185.5,205.5C 190.986,204.185 196.32,204.185 201.5,205.5 Z"/></g>
<g><path style="opacity:1" fill="#68787d" d="M 252.5,206.5 C 249.167,205.167 245.833,205.167 242.5,206.5C 241.957,206.44 241.624,206.107 241.5,205.5C 245.5,204.167 249.5,204.167 253.5,205.5C 253.376,206.107 253.043,206.44 252.5,206.5 Z"/></g>
<g><path style="opacity:1" fill="#65767b" d="M 270.5,206.5 C 267.167,205.167 263.833,205.167 260.5,206.5C 259.957,206.44 259.624,206.107 259.5,205.5C 263.5,204.167 267.5,204.167 271.5,205.5C 271.376,206.107 271.043,206.44 270.5,206.5 Z"/></g>
<g><path style="opacity:1" fill="#29474f" d="M 186.5,206.5 C 191.305,205.513 196.305,205.179 201.5,205.5C 207.076,205.974 209.243,208.974 208,214.5C 207.535,215.931 206.701,217.097 205.5,218C 201.94,219.237 198.273,219.737 194.5,219.5C 194.335,222.85 194.502,226.183 195,229.5C 196.399,230.227 197.899,230.727 199.5,231C 194.833,231.667 190.167,231.667 185.5,231C 186.931,230.535 188.097,229.701 189,228.5C 189.667,221.5 189.667,214.5 189,207.5C 188.329,206.748 187.496,206.414 186.5,206.5 Z"/></g>
<g><path style="opacity:1" fill="#27454e" d="M 242.5,206.5 C 245.833,205.167 249.167,205.167 252.5,206.5C 250.598,209.337 249.931,212.671 250.5,216.5C 254.634,217.485 258.968,217.818 263.5,217.5C 263.813,213.958 263.479,210.625 262.5,207.5C 262.158,206.662 261.492,206.328 260.5,206.5C 263.833,205.167 267.167,205.167 270.5,206.5C 269.177,209.938 268.51,213.771 268.5,218C 268.667,221.833 268.833,225.667 269,229.5C 269.75,230.126 270.584,230.626 271.5,231C 267.459,231.827 263.459,231.66 259.5,230.5C 260.602,229.824 261.602,229.158 262.5,228.5C 263.479,225.375 263.813,222.042 263.5,218.5C 258.833,218.5 254.167,218.5 249.5,218.5C 249.187,222.042 249.521,225.375 250.5,228.5C 251.347,229.966 252.68,230.8 254.5,231C 250.167,231.667 245.833,231.667 241.5,231C 242.931,230.535 244.097,229.701 245,228.5C 245.667,221.5 245.667,214.5 245,207.5C 244.329,206.748 243.496,206.414 242.5,206.5 Z"/></g>
<g><path style="opacity:1" fill="#2a4750" d="M 220.5,204.5 C 223.883,204.257 227.049,204.924 230,206.5C 230.414,206.043 230.914,205.709 231.5,205.5C 233.4,213.009 232.4,213.843 228.5,208C 224.339,205.389 221.339,206.222 219.5,210.5C 220.01,212.088 221.01,213.255 222.5,214C 226.869,215.267 230.703,217.433 234,220.5C 235.266,228.238 231.932,231.904 224,231.5C 221.53,231.66 219.364,230.993 217.5,229.5C 216.808,230.025 216.308,230.692 216,231.5C 215.333,228.5 215.333,225.5 216,222.5C 217.697,228.543 221.531,230.71 227.5,229C 230.473,227.776 231.14,225.776 229.5,223C 224.105,221.554 219.605,218.721 216,214.5C 215.077,210.017 216.577,206.683 220.5,204.5 Z"/></g>
<g><path style="opacity:1" fill="#2a4750" d="M 284.5,204.5 C 287.883,204.257 291.049,204.924 294,206.5C 294.414,206.043 294.914,205.709 295.5,205.5C 297.4,213.009 296.4,213.843 292.5,208C 288.339,205.389 285.339,206.222 283.5,210.5C 284.01,212.088 285.01,213.255 286.5,214C 290.869,215.267 294.703,217.433 298,220.5C 299.266,228.238 295.932,231.904 288,231.5C 285.53,231.66 283.364,230.993 281.5,229.5C 280.808,230.025 280.308,230.692 280,231.5C 279.333,228.5 279.333,225.5 280,222.5C 281.697,228.543 285.531,230.71 291.5,229C 294.473,227.776 295.14,225.776 293.5,223C 288.105,221.554 283.605,218.721 280,214.5C 279.077,210.017 280.577,206.683 284.5,204.5 Z"/></g>
<g><path style="opacity:1" fill="#ded5d3" d="M 194.5,206.5 C 202.619,206.469 204.619,209.969 200.5,217C 198.527,217.495 196.527,217.662 194.5,217.5C 194.5,213.833 194.5,210.167 194.5,206.5 Z"/></g>
<g><path style="opacity:1" fill="#65777b" d="M 262.5,207.5 C 263.479,210.625 263.813,213.958 263.5,217.5C 258.968,217.818 254.634,217.485 250.5,216.5C 254.5,216.5 258.5,216.5 262.5,216.5C 262.5,213.5 262.5,210.5 262.5,207.5 Z"/></g>
<g><path style="opacity:1" fill="#7b868b" d="M 262.5,228.5 C 262.5,225.5 262.5,222.5 262.5,219.5C 258.5,219.5 254.5,219.5 250.5,219.5C 250.5,222.5 250.5,225.5 250.5,228.5C 249.521,225.375 249.187,222.042 249.5,218.5C 254.167,218.5 258.833,218.5 263.5,218.5C 263.813,222.042 263.479,225.375 262.5,228.5 Z"/></g>
<g><path style="opacity:1" fill="#707ba1" d="M 48.5,241.5 C 49.0378,244.905 50.3712,247.905 52.5,250.5C 56.2578,259.692 59.7578,269.025 63,278.5C 63.3468,280.18 64.3468,281.18 66,281.5C 83.6224,276.373 101.456,275.373 119.5,278.5C 127.558,274.139 135.892,270.305 144.5,267C 153.978,264.289 163.645,263.122 173.5,263.5C 174.995,263.415 175.995,264.081 176.5,265.5C 173.694,266.168 171.028,266.834 168.5,267.5C 152.435,268.413 137.435,272.747 123.5,280.5C 103.904,279.382 84.571,281.049 65.5,285.5C 64.5,285.167 63.5,284.833 62.5,284.5C 56.1596,269.804 49.8263,255.137 43.5,240.5C 41.272,236.042 39.6054,231.375 38.5,226.5C 39.8333,226.5 41.1667,226.5 42.5,226.5C 43.3431,232.043 45.3431,237.043 48.5,241.5 Z"/></g>
<g><path style="opacity:1" fill="#344f57" d="M 146.5,224.5 C 149.572,224.183 152.572,224.516 155.5,225.5C 142.288,227.773 130.622,233.273 120.5,242C 118.598,243.301 116.598,243.968 114.5,244C 124.43,236.206 135.097,229.706 146.5,224.5 Z"/></g>
<g><path style="opacity:1" fill="#68797d" d="M 207.5,242.5 C 200.313,242.175 193.313,242.509 186.5,243.5C 185.957,243.44 185.624,243.107 185.5,242.5C 192.99,241.181 200.323,241.181 207.5,242.5 Z"/></g>
<g><path style="opacity:1" fill="#68787d" d="M 277.5,243.5 C 274.167,242.167 270.833,242.167 267.5,243.5C 266.957,243.44 266.624,243.107 266.5,242.5C 270.5,241.167 274.5,241.167 278.5,242.5C 278.376,243.107 278.043,243.44 277.5,243.5 Z"/></g>
<g><path style="opacity:1" fill="#6a7a7f" d="M 333.5,242.5 C 328.305,242.179 323.305,242.513 318.5,243.5C 317.957,243.44 317.624,243.107 317.5,242.5C 322.986,241.185 328.32,241.185 333.5,242.5 Z"/></g>
<g><path style="opacity:1" fill="#2a4750" d="M 360.5,241.5 C 361.822,241.33 362.989,241.663 364,242.5C 367,249.833 370,257.167 373,264.5C 374.214,266.049 375.714,267.215 377.5,268C 373.129,268.828 368.795,268.661 364.5,267.5C 365.325,266.614 366.325,266.281 367.5,266.5C 367.634,261.635 365.301,259.635 360.5,260.5C 355.492,259.508 353.492,261.508 354.5,266.5C 355.675,266.281 356.675,266.614 357.5,267.5C 354.167,268.833 350.833,268.833 347.5,267.5C 348.628,266.738 349.795,266.071 351,265.5C 354.467,257.595 357.634,249.595 360.5,241.5 Z"/></g>
<g><path style="opacity:1" fill="#6d7c81" d="M 397.5,242.5 C 392.305,242.179 387.305,242.513 382.5,243.5C 381.957,243.44 381.624,243.107 381.5,242.5C 386.986,241.185 392.32,241.185 397.5,242.5 Z"/></g>
<g><path style="opacity:1" fill="#3b555c" d="M 159.5,237.5 C 160.978,237.238 162.311,237.571 163.5,238.5C 150.782,242.519 138.449,247.686 126.5,254C 125.5,255 124.5,256 123.5,257C 122.668,257.688 122.002,257.521 121.5,256.5C 122.748,254.541 124.415,253.041 126.5,252C 137.375,246.555 148.375,241.722 159.5,237.5 Z"/></g>
<g><path style="opacity:1" fill="#29474f" d="M 186.5,243.5 C 193.313,242.509 200.313,242.175 207.5,242.5C 207.662,244.527 207.495,246.527 207,248.5C 206.215,246.714 205.049,245.214 203.5,244C 200.518,243.502 197.518,243.335 194.5,243.5C 194.5,246.833 194.5,250.167 194.5,253.5C 198.182,254.275 200.682,252.941 202,249.5C 202.667,252.833 202.667,256.167 202,259.5C 200.682,256.059 198.182,254.725 194.5,255.5C 194.211,259.106 194.544,262.606 195.5,266C 198.5,266.667 201.5,266.667 204.5,266C 206.436,264.638 207.769,262.805 208.5,260.5C 209.48,263.086 209.813,265.753 209.5,268.5C 201.493,268.666 193.493,268.5 185.5,268C 186.931,267.535 188.097,266.701 189,265.5C 189.667,258.5 189.667,251.5 189,244.5C 188.329,243.748 187.496,243.414 186.5,243.5 Z"/></g>
<g><path style="opacity:1" fill="#294750" d="M 236.5,241.5 C 240.555,241.176 244.555,241.509 248.5,242.5C 247.372,243.262 246.205,243.929 245,244.5C 244.333,251.167 244.333,257.833 245,264.5C 248.183,266.523 251.683,267.023 255.5,266C 257.436,264.638 258.769,262.805 259.5,260.5C 260.205,263.089 260.205,265.756 259.5,268.5C 251.493,268.666 243.493,268.5 235.5,268C 236.563,266.812 237.897,266.312 239.5,266.5C 239.666,259.159 239.5,251.826 239,244.5C 237.583,243.922 236.75,242.922 236.5,241.5 Z"/></g>
<g><path style="opacity:1" fill="#26454d" d="M 267.5,243.5 C 270.833,242.167 274.167,242.167 277.5,243.5C 276.883,243.611 276.383,243.944 276,244.5C 275.333,251.833 275.333,259.167 276,266.5C 276.75,267.126 277.584,267.626 278.5,268C 274.5,268.667 270.5,268.667 266.5,268C 267.931,267.535 269.097,266.701 270,265.5C 270.667,258.5 270.667,251.5 270,244.5C 269.329,243.748 268.496,243.414 267.5,243.5 Z"/></g>
<g><path style="opacity:1" fill="#29474f" d="M 286.5,241.5 C 291.511,241.334 296.511,241.501 301.5,242C 306.746,243.237 308.58,246.404 307,251.5C 305.581,252.46 304.081,253.293 302.5,254C 310.03,255.478 312.03,259.478 308.5,266C 307.167,266.667 305.833,267.333 304.5,268C 298.167,268.667 291.833,268.667 285.5,268C 286.931,267.535 288.097,266.701 289,265.5C 289.667,258.5 289.667,251.5 289,244.5C 287.583,243.922 286.75,242.922 286.5,241.5 Z"/></g>
<g><path style="opacity:1" fill="#24434c" d="M 318.5,243.5 C 323.305,242.513 328.305,242.179 333.5,242.5C 339.569,244.127 341.069,247.793 338,253.5C 336.414,254.376 334.914,255.376 333.5,256.5C 336.608,260.897 340.275,264.73 344.5,268C 341.833,268.667 339.167,268.667 336.5,268C 333.324,263.994 329.991,260.16 326.5,256.5C 325.345,259.446 325.179,262.446 326,265.5C 327.171,266.893 328.671,267.727 330.5,268C 325.833,268.667 321.167,268.667 316.5,268C 317.563,266.812 318.897,266.312 320.5,266.5C 320.666,259.159 320.5,251.826 320,244.5C 319.617,243.944 319.117,243.611 318.5,243.5 Z"/></g>
<g><path style="opacity:1" fill="#27454e" d="M 382.5,243.5 C 387.305,242.513 392.305,242.179 397.5,242.5C 403.076,242.974 405.243,245.974 404,251.5C 402.363,253.81 400.196,255.31 397.5,256C 400.696,260.696 404.696,264.53 409.5,267.5C 406.894,268.652 404.227,268.818 401.5,268C 398.117,264.072 394.617,260.239 391,256.5C 390.333,259.833 390.333,263.167 391,266.5C 392.399,267.227 393.899,267.727 395.5,268C 390.833,268.667 386.167,268.667 381.5,268C 382.931,267.535 384.097,266.701 385,265.5C 385.667,258.5 385.667,251.5 385,244.5C 384.329,243.748 383.496,243.414 382.5,243.5 Z"/></g>
<g><path style="opacity:1" fill="#2c4951" d="M 412.5,241.5 C 416.226,241.177 419.893,241.511 423.5,242.5C 422.689,243.216 422.022,244.05 421.5,245C 422.943,248.721 424.777,252.221 427,255.5C 429.248,252.672 431.248,249.672 433,246.5C 433.54,244.865 433.04,243.532 431.5,242.5C 434.167,241.167 436.833,241.167 439.5,242.5C 432.479,248.651 428.979,256.317 429,265.5C 430.255,266.211 431.421,267.044 432.5,268C 428.167,268.667 423.833,268.667 419.5,268C 423.292,265.947 424.458,262.781 423,258.5C 419.965,252.406 416.465,246.74 412.5,241.5 Z"/></g>
<g><path style="opacity:1" fill="#375259" d="M 151.5,232.5 C 161.953,232.557 161.953,233.39 151.5,235C 139.152,239.174 127.819,244.84 117.5,252C 120.203,248.962 123.203,246.295 126.5,244C 134.893,240.048 143.227,236.214 151.5,232.5 Z"/></g>
<g><path style="opacity:1" fill="#d6cecd" d="M 294.5,243.5 C 301.547,242.701 303.881,245.535 301.5,252C 299.323,253.202 296.989,253.702 294.5,253.5C 294.5,250.167 294.5,246.833 294.5,243.5 Z"/></g>
<g><path style="opacity:1" fill="#d7cfce" d="M 325.5,243.5 C 333.299,243.096 335.633,246.263 332.5,253C 330.323,254.202 327.989,254.702 325.5,254.5C 325.5,250.833 325.5,247.167 325.5,243.5 Z"/></g>
<g><path style="opacity:1" fill="#68787d" d="M 390.5,243.5 C 390.5,246.833 390.5,250.167 390.5,253.5C 392.167,253.5 393.833,253.5 395.5,253.5C 393.735,254.461 391.735,254.795 389.5,254.5C 389.185,250.629 389.518,246.962 390.5,243.5 Z"/></g>
<g><path style="opacity:1" fill="#ddd3d2" d="M 390.5,243.5 C 397.56,242.725 400.06,245.725 398,252.5C 397.329,253.252 396.496,253.586 395.5,253.5C 393.833,253.5 392.167,253.5 390.5,253.5C 390.5,250.167 390.5,246.833 390.5,243.5 Z"/></g>
<g><path style="opacity:1" fill="#29434b" d="M 43.5,240.5 C 49.8263,255.137 56.1596,269.804 62.5,284.5C 63.5,284.833 64.5,285.167 65.5,285.5C 84.571,281.049 103.904,279.382 123.5,280.5C 121.708,281.309 119.708,281.809 117.5,282C 112.185,290.013 105.185,291.68 96.5,287C 94.964,285.04 93.1307,283.54 91,282.5C 81.452,284.101 71.952,285.601 62.5,287C 57.205,276.243 52.0383,265.409 47,254.5C 40.5636,263.77 35.0636,273.103 30.5,282.5C 29.8333,283.167 29.1667,283.833 28.5,284.5C 28.8527,289.357 29.8527,294.024 31.5,298.5C 30.8333,298.5 30.5,298.833 30.5,299.5C 26.4001,298.808 22.4001,297.808 18.5,296.5C 18.5,295.833 18.8333,295.5 19.5,295.5C 20.5,295.5 21.5,295.5 22.5,295.5C 22.2781,290.668 20.9448,286.168 18.5,282C 17.552,281.517 16.552,281.351 15.5,281.5C 15.5,280.833 15.8333,280.5 16.5,280.5C 18.9032,280.607 20.7365,279.607 22,277.5C 29,267.5 36,257.5 43,247.5C 43.4901,245.455 43.3235,243.455 42.5,241.5C 42.5,240.833 42.8333,240.5 43.5,240.5 Z"/></g>
<g><path style="opacity:1" fill="#d4cdcc" d="M 166.5,249.5 C 169.272,249.595 171.272,250.929 172.5,253.5C 169.358,254.167 166.358,254.834 163.5,255.5C 159.44,255.485 155.44,255.985 151.5,257C 144.057,259.738 136.724,262.404 129.5,265C 141.144,258.175 153.477,253.008 166.5,249.5 Z"/></g>
<g><path style="opacity:1" fill="#d3cccb" d="M 360.5,248.5 C 362.403,251.53 363.737,254.863 364.5,258.5C 361.753,258.813 359.086,258.48 356.5,257.5C 357.84,254.471 359.173,251.471 360.5,248.5 Z"/></g>
<g><path style="opacity:1" fill="#de8a78" d="M 123.5,280.5 C 127.219,279.53 130.886,278.696 134.5,278C 128.878,283.776 123.878,289.942 119.5,296.5C 98.1927,293.891 76.8594,291.391 55.5,289C 47.1962,286.674 38.8629,284.507 30.5,282.5C 35.0636,273.103 40.5636,263.77 47,254.5C 52.0383,265.409 57.205,276.243 62.5,287C 71.952,285.601 81.452,284.101 91,282.5C 93.1307,283.54 94.964,285.04 96.5,287C 105.185,291.68 112.185,290.013 117.5,282C 119.708,281.809 121.708,281.309 123.5,280.5 Z"/></g>
<g><path style="opacity:1" fill="#485f66" d="M 170.5,238.5 C 172.059,240.608 173.392,242.941 174.5,245.5C 172.988,246.249 171.988,247.416 171.5,249C 172.985,251.156 174.485,253.323 176,255.5C 176.189,259.17 177.023,262.67 178.5,266C 177.615,268.157 175.948,268.99 173.5,268.5C 172.081,267.549 170.415,267.216 168.5,267.5C 171.028,266.834 173.694,266.168 176.5,265.5C 175.995,264.081 174.995,263.415 173.5,263.5C 168.695,262.513 163.695,262.179 158.5,262.5C 146.745,262.522 135.745,265.856 125.5,272.5C 124.537,272.03 124.537,271.363 125.5,270.5C 128.914,267.46 132.914,265.46 137.5,264.5C 149.232,260.846 161.232,258.346 173.5,257C 171.527,256.505 169.527,256.338 167.5,256.5C 166.432,255.566 165.099,255.232 163.5,255.5C 166.358,254.834 169.358,254.167 172.5,253.5C 171.272,250.929 169.272,249.595 166.5,249.5C 166.158,248.662 165.492,248.328 164.5,248.5C 166.515,247.076 168.848,246.41 171.5,246.5C 171.6,243.892 170.933,241.558 169.5,239.5C 169.5,238.833 169.833,238.5 170.5,238.5 Z"/></g>
<g><path style="opacity:1" fill="#ddd4d2" d="M 294.5,255.5 C 298.192,254.971 301.358,255.971 304,258.5C 304.808,265.603 301.808,267.937 295,265.5C 294.502,262.183 294.335,258.85 294.5,255.5 Z"/></g>
<g><path style="opacity:1" fill="#d1cac9" d="M 167.5,256.5 C 169.527,256.338 171.527,256.505 173.5,257C 161.232,258.346 149.232,260.846 137.5,264.5C 146.729,259.358 156.729,256.691 167.5,256.5 Z"/></g>
<g><path style="opacity:1" fill="#3e575e" d="M 217.5,256.5 C 221.167,256.5 224.833,256.5 228.5,256.5C 228.5,257.833 228.5,259.167 228.5,260.5C 224.833,260.5 221.167,260.5 217.5,260.5C 217.5,259.167 217.5,257.833 217.5,256.5 Z"/></g>
<g><path style="opacity:1" fill="#dcd3d2" d="M 166.5,259.5 C 168.924,259.192 171.257,259.526 173.5,260.5C 168.869,261.662 164.202,261.828 159.5,261C 162.036,260.814 164.369,260.314 166.5,259.5 Z"/></g>
<g><path style="opacity:1" fill="#cbc6c5" d="M 158.5,262.5 C 152.011,263.273 145.678,264.773 139.5,267C 132.449,270.195 125.449,273.362 118.5,276.5C 101.425,273.235 84.5913,274.235 68,279.5C 67.5,279.167 67,278.833 66.5,278.5C 68.5654,277.143 70.5654,275.81 72.5,274.5C 66.4418,275.198 66.7752,274.031 73.5,271C 80.7892,268.482 88.2892,266.982 96,266.5C 104.515,267.308 112.849,268.974 121,271.5C 122.533,271.227 124.033,270.894 125.5,270.5C 124.537,271.363 124.537,272.03 125.5,272.5C 135.745,265.856 146.745,262.522 158.5,262.5 Z"/></g>
<g><path style="opacity:1" fill="#334e56" d="M 170.5,238.5 C 169.833,238.5 169.5,238.833 169.5,239.5C 159.222,222.612 150.222,204.946 142.5,186.5C 121.482,185.342 104.816,193.342 92.5,210.5C 101.727,230.248 111.227,249.915 121,269.5C 134.143,259.678 148.643,252.678 164.5,248.5C 165.492,248.328 166.158,248.662 166.5,249.5C 153.477,253.008 141.144,258.175 129.5,265C 136.724,262.404 144.057,259.738 151.5,257C 155.44,255.985 159.44,255.485 163.5,255.5C 165.099,255.232 166.432,255.566 167.5,256.5C 156.729,256.691 146.729,259.358 137.5,264.5C 132.914,265.46 128.914,267.46 125.5,270.5C 124.033,270.894 122.533,271.227 121,271.5C 112.849,268.974 104.515,267.308 96,266.5C 88.2892,266.982 80.7892,268.482 73.5,271C 66.7752,274.031 66.4418,275.198 72.5,274.5C 70.5654,275.81 68.5654,277.143 66.5,278.5C 67,278.833 67.5,279.167 68,279.5C 84.5913,274.235 101.425,273.235 118.5,276.5C 125.449,273.362 132.449,270.195 139.5,267C 145.678,264.773 152.011,263.273 158.5,262.5C 163.695,262.179 168.695,262.513 173.5,263.5C 163.645,263.122 153.978,264.289 144.5,267C 135.892,270.305 127.558,274.139 119.5,278.5C 101.456,275.373 83.6224,276.373 66,281.5C 64.3468,281.18 63.3468,280.18 63,278.5C 59.7578,269.025 56.2578,259.692 52.5,250.5C 53.1667,251.167 53.8333,251.833 54.5,252.5C 57.7069,260.953 61.2069,269.287 65,277.5C 65.1667,277 65.3333,276.5 65.5,276C 64.3487,273.535 63.3487,271.035 62.5,268.5C 63.3635,269.463 64.0302,269.463 64.5,268.5C 57.9052,252.551 51.4052,236.551 45,220.5C 42.8497,225.221 43.3497,229.554 46.5,233.5C 47.1667,236.167 47.8333,238.833 48.5,241.5C 45.3431,237.043 43.3431,232.043 42.5,226.5C 41.1667,226.5 39.8333,226.5 38.5,226.5C 39.6054,231.375 41.272,236.042 43.5,240.5C 42.8333,240.5 42.5,240.833 42.5,241.5C 41.3737,238.473 39.8737,238.14 38,240.5C 28.1667,253 18.3333,265.5 8.5,278C 11.3102,278.782 13.9768,279.616 16.5,280.5C 15.8333,280.5 15.5,280.833 15.5,281.5C 12.9356,281.021 10.4356,280.355 8,279.5C 8.01054,283.225 8.67721,286.892 10,290.5C 12.9951,292.653 16.1618,294.319 19.5,295.5C 18.8333,295.5 18.5,295.833 18.5,296.5C 14.6336,296.046 11.1336,294.712 8,292.5C 6.25468,287.614 5.58802,282.614 6,277.5C 16.3333,264.833 26.6667,252.167 37,239.5C 37.8749,238.127 38.3749,236.627 38.5,235C 36.9617,231.979 36.4617,228.812 37,225.5C 38.892,224.87 40.5587,223.87 42,222.5C 42.2065,219.377 42.8732,216.377 44,213.5C 52.5673,208.252 61.9006,205.918 72,206.5C 78.5853,206.621 85.0853,207.121 91.5,208C 98.3414,199.494 106.675,192.828 116.5,188C 125.266,184.969 134.266,183.969 143.5,185C 152.13,203.093 161.13,220.927 170.5,238.5 Z"/></g>
<g><path style="opacity:1" fill="#868f92" d="M 54.5,252.5 C 54.8333,252.5 55.1667,252.5 55.5,252.5C 58.9005,257.307 61.2338,262.64 62.5,268.5C 63.3487,271.035 64.3487,273.535 65.5,276C 65.3333,276.5 65.1667,277 65,277.5C 61.2069,269.287 57.7069,260.953 54.5,252.5 Z"/></g>
<g><path style="opacity:1" fill="#ccc6c5" d="M 62.5,268.5 C 61.2338,262.64 58.9005,257.307 55.5,252.5C 54.2656,247.117 52.2656,242.117 49.5,237.5C 48.3073,233.089 46.8073,228.756 45,224.5C 45.1584,227.502 45.6584,230.502 46.5,233.5C 43.3497,229.554 42.8497,225.221 45,220.5C 51.4052,236.551 57.9052,252.551 64.5,268.5C 64.0302,269.463 63.3635,269.463 62.5,268.5 Z"/></g>
<g><path style="opacity:1" fill="#617379" d="M 49.5,237.5 C 52.2656,242.117 54.2656,247.117 55.5,252.5C 55.1667,252.5 54.8333,252.5 54.5,252.5C 53.8333,251.833 53.1667,251.167 52.5,250.5C 50.3712,247.905 49.0378,244.905 48.5,241.5C 49.3149,242.429 50.1482,243.429 51,244.5C 51.1667,244.167 51.3333,243.833 51.5,243.5C 50.2528,241.677 49.5861,239.677 49.5,237.5 Z"/></g>
<g><path style="opacity:1" fill="#c7c3c3" d="M 46.5,233.5 C 47.5,234.833 48.5,236.167 49.5,237.5C 49.5861,239.677 50.2528,241.677 51.5,243.5C 51.3333,243.833 51.1667,244.167 51,244.5C 50.1482,243.429 49.3149,242.429 48.5,241.5C 47.8333,238.833 47.1667,236.167 46.5,233.5 Z"/></g>
<g><path style="opacity:1" fill="#df8b78" d="M 42.5,241.5 C 43.3235,243.455 43.4901,245.455 43,247.5C 36,257.5 29,267.5 22,277.5C 20.7365,279.607 18.9032,280.607 16.5,280.5C 13.9768,279.616 11.3102,278.782 8.5,278C 18.3333,265.5 28.1667,253 38,240.5C 39.8737,238.14 41.3737,238.473 42.5,241.5 Z"/></g>
<g><path style="opacity:1" fill="#596c72" d="M 49.5,237.5 C 48.5,236.167 47.5,234.833 46.5,233.5C 45.6584,230.502 45.1584,227.502 45,224.5C 46.8073,228.756 48.3073,233.089 49.5,237.5 Z"/></g>
<g><path style="opacity:1" fill="#355058" d="M 145.5,215.5 C 146.873,215.343 148.207,215.51 149.5,216C 135.624,218.892 123.957,225.559 114.5,236C 113.833,236.667 113.167,236.667 112.5,236C 121.071,225.058 132.071,218.225 145.5,215.5 Z"/></g>
<g><path style="opacity:1" fill="#375159" d="M 144.5,206.5 C 145.552,206.351 146.552,206.517 147.5,207C 137.743,209.875 128.41,213.875 119.5,219C 115.333,221.833 111.833,225.333 109,229.5C 108.685,228.092 109.018,226.759 110,225.5C 119.918,216.128 131.418,209.794 144.5,206.5 Z"/></g>
<g><path style="opacity:1" fill="#dfd5d3" d="M 62.5,208.5 C 68.5092,208.334 74.5092,208.501 80.5,209C 84.7076,209.173 88.5409,210.34 92,212.5C 100.155,231.157 108.988,249.49 118.5,267.5C 118,267.833 117.5,268.167 117,268.5C 114.322,267.164 111.489,266.33 108.5,266C 94.5831,264.013 81.2498,265.846 68.5,271.5C 60.1322,253.254 52.1322,234.754 44.5,216C 46.1558,214.171 48.1558,212.837 50.5,212C 54.6747,211.009 58.6747,209.842 62.5,208.5 Z"/></g>
<g><path style="opacity:1" fill="#3f5860" d="M 97.5,255.5 C 101.794,255.182 105.794,256.015 109.5,258C 103.881,257.814 98.2139,257.48 92.5,257C 94.3817,256.802 96.0484,256.302 97.5,255.5 Z"/></g>
<g><path style="opacity:1" fill="#475e65" d="M 91.5,250.5 C 96.5995,250.429 101.6,251.096 106.5,252.5C 105.833,252.833 105.167,253.167 104.5,253.5C 99.8633,252.78 95.1966,252.28 90.5,252C 91.056,251.617 91.3893,251.117 91.5,250.5 Z"/></g>
<g><path style="opacity:1" fill="#566a70" d="M 92.5,243.5 C 95.8984,243.18 99.2317,243.513 102.5,244.5C 98.2047,245.661 93.8713,245.828 89.5,245C 90.7375,244.768 91.7375,244.268 92.5,243.5 Z"/></g>
<g><path style="opacity:1" fill="#344d52" d="M 68.5,238.5 C 72.8461,238.334 77.1794,238.501 81.5,239C 83.7303,245.189 86.0636,251.355 88.5,257.5C 83.2861,258.643 78.1194,259.976 73,261.5C 69.5288,255.38 66.6955,248.88 64.5,242C 65.3471,240.229 66.6805,239.063 68.5,238.5 Z"/></g>
<g><path style="opacity:1" fill="#d3a570" d="M 70.5,239.5 C 73.8984,239.18 77.2317,239.513 80.5,240.5C 82.9053,246.051 84.9053,251.717 86.5,257.5C 82.1412,257.113 77.9746,257.78 74,259.5C 73.5,259.167 73,258.833 72.5,258.5C 70.5713,252.812 68.238,247.312 65.5,242C 67.3146,241.243 68.9812,240.41 70.5,239.5 Z"/></g>
<g><path style="opacity:1" fill="#485f66" d="M 86.5,237.5 C 91.3614,237.063 96.0281,237.563 100.5,239C 98.1667,239.167 95.8333,239.333 93.5,239.5C 90.7305,239.471 88.3972,238.805 86.5,237.5 Z"/></g>
<g><path style="opacity:1" fill="#355058" d="M 74.5,230.5 C 77.0593,230.198 79.3926,230.532 81.5,231.5C 73.3669,231.793 65.3669,232.626 57.5,234C 62.7342,231.004 68.4009,229.838 74.5,230.5 Z"/></g>
<g><path style="opacity:1" fill="#586b71" d="M 74.5,230.5 C 79.9846,229.348 85.6513,229.182 91.5,230C 92.938,230.219 94.2713,230.719 95.5,231.5C 94.6667,231.833 93.8333,232.167 93,232.5C 89.2079,231.69 85.3745,231.356 81.5,231.5C 79.3926,230.532 77.0593,230.198 74.5,230.5 Z"/></g>
<g><path style="opacity:1" fill="#3e575e" d="M 74.5,221.5 C 80.5771,221.196 86.5771,221.696 92.5,223C 80.0237,223.076 67.6904,224.076 55.5,226C 61.7225,223.462 68.0558,221.962 74.5,221.5 Z"/></g>
<g><path style="opacity:1" fill="#405960" d="M 65.5,213.5 C 74.0378,212.957 82.3711,213.957 90.5,216.5C 87.8611,217.356 85.1944,217.19 82.5,216C 72.4649,214.534 62.7983,215.7 53.5,219.5C 53.1667,219.167 52.8333,218.833 52.5,218.5C 56.5442,215.823 60.8775,214.156 65.5,213.5 Z"/></g>
<g><path style="opacity:1" fill="#355058" d="M 137.5,200.5 C 139.604,200.201 141.604,200.534 143.5,201.5C 128.85,203.762 116.184,209.929 105.5,220C 104.668,220.688 104.002,220.521 103.5,219.5C 113.129,210.021 124.462,203.688 137.5,200.5 Z"/></g>
<g><path style="opacity:1" fill="#3a545b" d="M 129.5,193.5 C 132.518,193.335 135.518,193.502 138.5,194C 124.48,195.343 112.48,201.01 102.5,211C 101.833,211.667 101.167,211.667 100.5,211C 108.369,202.071 118.035,196.237 129.5,193.5 Z"/></g>
<g><path style="opacity:1" fill="#2c4952" d="M 72.5,274.5 C 75.4216,272.469 78.7549,271.302 82.5,271C 89.4653,269.746 96.4653,269.413 103.5,270C 93.0296,270.71 82.6962,272.21 72.5,274.5 Z"/></g>
<g><path style="opacity:1" fill="#485f66" d="M 104.5,271.5 C 109.594,270.507 114.594,271.34 119.5,274C 114.53,273.296 109.53,272.463 104.5,271.5 Z"/></g>
<g><path style="opacity:1" fill="#7982a8" d="M 192.5,273.5 C 194.924,273.192 197.257,273.526 199.5,274.5C 197.833,275.167 196.167,275.833 194.5,276.5C 199.833,277.833 199.833,279.167 194.5,280.5C 196.167,281.167 197.833,281.833 199.5,282.5C 197.257,283.474 194.924,283.808 192.5,283.5C 192.5,280.167 192.5,276.833 192.5,273.5 Z"/></g>
<g><path style="opacity:1" fill="#888dae" d="M 234.5,273.5 C 235.552,273.351 236.552,273.517 237.5,274C 238.542,275.918 239.708,277.751 241,279.5C 241.192,277.423 241.692,275.423 242.5,273.5C 243.833,276.833 243.833,280.167 242.5,283.5C 240.541,282.252 239.041,280.585 238,278.5C 237.506,280.134 237.34,281.801 237.5,283.5C 236.5,283.5 235.5,283.5 234.5,283.5C 234.5,280.167 234.5,276.833 234.5,273.5 Z"/></g>
<g><path style="opacity:1" fill="#7780a8" d="M 272.5,273.5 C 274.369,275.635 275.036,278.302 274.5,281.5C 276.288,281.215 277.955,281.548 279.5,282.5C 277.257,283.474 274.924,283.808 272.5,283.5C 272.5,280.167 272.5,276.833 272.5,273.5 Z"/></g>
<g><path style="opacity:1" fill="#7c83a9" d="M 281.5,273.5 C 283.924,273.192 286.257,273.526 288.5,274.5C 286.833,275.167 285.167,275.833 283.5,276.5C 288.833,277.833 288.833,279.167 283.5,280.5C 285.167,281.167 286.833,281.833 288.5,282.5C 286.257,283.474 283.924,283.808 281.5,283.5C 281.5,280.167 281.5,276.833 281.5,273.5 Z"/></g>
<g><path style="opacity:1" fill="#8188ac" d="M 290.5,273.5 C 295.145,272.416 298.145,274.083 299.5,278.5C 298.145,282.917 295.145,284.584 290.5,283.5C 290.5,280.167 290.5,276.833 290.5,273.5 Z"/></g>
<g><path style="opacity:1" fill="#7982a8" d="M 313.5,273.5 C 315.924,273.192 318.257,273.526 320.5,274.5C 318.833,275.167 317.167,275.833 315.5,276.5C 320.833,277.833 320.833,279.167 315.5,280.5C 317.167,281.167 318.833,281.833 320.5,282.5C 318.257,283.474 315.924,283.808 313.5,283.5C 313.5,280.167 313.5,276.833 313.5,273.5 Z"/></g>
<g><path style="opacity:1" fill="#888dae" d="M 341.5,273.5 C 342.552,273.351 343.552,273.517 344.5,274C 345.542,275.918 346.708,277.751 348,279.5C 348.192,277.423 348.692,275.423 349.5,273.5C 350.833,276.833 350.833,280.167 349.5,283.5C 347.541,282.252 346.041,280.585 345,278.5C 344.506,280.134 344.34,281.801 344.5,283.5C 343.5,283.5 342.5,283.5 341.5,283.5C 341.5,280.167 341.5,276.833 341.5,273.5 Z"/></g>
<g><path style="opacity:1" fill="#898faf" d="M 361.5,273.5 C 364.247,273.187 366.914,273.52 369.5,274.5C 367.74,277.212 367.073,280.212 367.5,283.5C 366.5,283.5 365.5,283.5 364.5,283.5C 364.5,280.833 364.5,278.167 364.5,275.5C 362.821,275.715 361.821,275.048 361.5,273.5 Z"/></g>
<g><path style="opacity:1" fill="#9396b4" d="M 372.5,273.5 C 373.777,274.694 374.444,276.36 374.5,278.5C 374.167,280.167 373.833,281.833 373.5,283.5C 372.513,280.232 372.18,276.898 372.5,273.5 Z"/></g>
<g><path style="opacity:1" fill="#7c83a9" d="M 390.5,273.5 C 392.924,273.192 395.257,273.526 397.5,274.5C 395.833,275.167 394.167,275.833 392.5,276.5C 397.833,277.833 397.833,279.167 392.5,280.5C 394.167,281.167 395.833,281.833 397.5,282.5C 395.257,283.474 392.924,283.808 390.5,283.5C 390.5,280.167 390.5,276.833 390.5,273.5 Z"/></g>
<g><path style="opacity:1" fill="#838aad" d="M 418.5,273.5 C 421.385,274.545 423.552,276.545 425,279.5C 425.192,277.423 425.692,275.423 426.5,273.5C 427.487,276.768 427.82,280.102 427.5,283.5C 424.615,282.455 422.448,280.455 421,277.5C 420.808,279.577 420.308,281.577 419.5,283.5C 418.513,280.232 418.18,276.898 418.5,273.5 Z"/></g>
<g><path style="opacity:1" fill="#8188ab" d="M 438.5,274.5 C 439.209,273.596 440.209,273.263 441.5,273.5C 441.238,274.978 441.571,276.311 442.5,277.5C 444.899,272.073 446.732,272.406 448,278.5C 448.402,277.128 448.902,275.795 449.5,274.5C 450.167,273.167 450.833,273.167 451.5,274.5C 450.067,277.333 449.4,280.333 449.5,283.5C 448.5,283.5 447.5,283.5 446.5,283.5C 446.769,281.571 446.269,279.905 445,278.5C 444.64,280.421 443.806,282.088 442.5,283.5C 441.145,280.408 439.812,277.408 438.5,274.5 Z"/></g>
<g><path style="opacity:1" fill="#868cae" d="M 453.5,273.5 C 455.176,274.183 455.843,275.517 455.5,277.5C 457.167,277.5 458.833,277.5 460.5,277.5C 460.238,276.022 460.571,274.689 461.5,273.5C 462.833,276.833 462.833,280.167 461.5,283.5C 460.571,282.311 460.238,280.978 460.5,279.5C 459.167,279.5 457.833,279.5 456.5,279.5C 456.5,280.833 456.5,282.167 456.5,283.5C 455.5,283.5 454.5,283.5 453.5,283.5C 453.5,280.167 453.5,276.833 453.5,273.5 Z"/></g>
<g><path style="opacity:1" fill="#868cae" d="M 464.5,273.5 C 466.924,273.192 469.257,273.526 471.5,274.5C 466.167,275.833 466.167,277.167 471.5,278.5C 470.167,279.167 468.833,279.833 467.5,280.5C 469.167,281.167 470.833,281.833 472.5,282.5C 469.914,283.48 467.247,283.813 464.5,283.5C 464.5,280.167 464.5,276.833 464.5,273.5 Z"/></g>
<g><path style="opacity:1" fill="#7f86ab" d="M 474.5,273.5 C 480.626,272.121 482.626,274.288 480.5,280C 480.759,281.261 481.426,282.261 482.5,283C 482,283.167 481.5,283.333 481,283.5C 479.832,282.491 478.665,281.491 477.5,280.5C 476.833,281.5 476.167,282.5 475.5,283.5C 474.513,280.232 474.18,276.898 474.5,273.5 Z"/></g>
<g><path style="opacity:1" fill="#7e86aa" d="M 484.5,273.5 C 486.924,273.192 489.257,273.526 491.5,274.5C 484.833,275.833 484.833,277.167 491.5,278.5C 484.833,279.833 484.833,281.167 491.5,282.5C 489.257,283.474 486.924,283.808 484.5,283.5C 484.5,280.167 484.5,276.833 484.5,273.5 Z"/></g>
<g><path style="opacity:1" fill="#7e85aa" d="M 182.5,273.5 C 185.157,273.162 187.49,273.829 189.5,275.5C 187.657,275.755 185.657,275.922 183.5,276C 181.73,281.061 183.397,282.561 188.5,280.5C 189.833,281.167 189.833,281.833 188.5,282.5C 183.66,284.772 180.993,283.272 180.5,278C 180.519,276.167 181.185,274.667 182.5,273.5 Z"/></g>
<g><path style="opacity:1" fill="#dbd1d3" d="M 292.5,275.5 C 296.35,275.701 297.35,277.534 295.5,281C 294.552,281.483 293.552,281.649 292.5,281.5C 292.5,279.5 292.5,277.5 292.5,275.5 Z"/></g>
<g><path style="opacity:1" fill="#e1d7d6" d="M 476.5,275.5 C 477.675,275.281 478.675,275.614 479.5,276.5C 477.948,277.798 476.948,277.465 476.5,275.5 Z"/></g>
<g><path style="opacity:1" fill="#8188ac" d="M 161.5,273.5 C 162.675,273.281 163.675,273.614 164.5,274.5C 166.087,277.521 166.753,280.521 166.5,283.5C 164.167,280.833 161.833,280.833 159.5,283.5C 159.167,283 158.833,282.5 158.5,282C 159.803,279.256 160.803,276.423 161.5,273.5 Z"/></g>
<g><path style="opacity:1" fill="#7c84aa" d="M 352.5,274.5 C 352.56,273.957 352.893,273.624 353.5,273.5C 354.719,274.263 355.719,275.263 356.5,276.5C 357.287,275.758 357.953,274.925 358.5,274C 359.332,273.312 359.998,273.479 360.5,274.5C 358.432,277.157 357.099,280.157 356.5,283.5C 355.901,280.083 354.568,277.083 352.5,274.5 Z"/></g>
<g><path style="opacity:1" fill="#7c84aa" d="M 429.5,274.5 C 429.56,273.957 429.893,273.624 430.5,273.5C 431.719,274.263 432.719,275.263 433.5,276.5C 434.287,275.758 434.953,274.925 435.5,274C 436.332,273.312 436.998,273.479 437.5,274.5C 435.432,277.157 434.099,280.157 433.5,283.5C 432.901,280.083 431.568,277.083 429.5,274.5 Z"/></g>
<g><path style="opacity:1" fill="#8087ab" d="M 202.5,273.5 C 204.467,273.261 206.301,273.594 208,274.5C 208.688,275.332 208.521,275.998 207.5,276.5C 202.389,275.445 202.389,276.112 207.5,278.5C 208.747,280.006 208.747,281.506 207.5,283C 205.559,283.743 203.726,283.576 202,282.5C 201.312,281.668 201.479,281.002 202.5,280.5C 203.891,281.645 205.224,281.645 206.5,280.5C 202.432,279.483 201.099,277.15 202.5,273.5 Z"/></g>
<g><path style="opacity:1" fill="#7f86ab" d="M 257.5,273.5 C 259.614,274.36 260.78,276.027 261,278.5C 262.268,272.406 264.101,272.073 266.5,277.5C 267.429,276.311 267.762,274.978 267.5,273.5C 268.552,273.351 269.552,273.517 270.5,274C 269.266,277.2 267.933,280.367 266.5,283.5C 265.066,281.78 264.233,279.78 264,277.5C 263.167,279.5 262.333,281.5 261.5,283.5C 259.268,280.615 257.934,277.282 257.5,273.5 Z"/></g>
<g><path style="opacity:1" fill="#8389ac" d="M 211.5,273.5 C 214.346,273.03 216.679,273.863 218.5,276C 216.687,275.954 215.021,276.12 213.5,276.5C 215.193,277.228 216.693,278.228 218,279.5C 218.521,282.118 217.354,283.451 214.5,283.5C 212.792,283.297 211.459,282.464 210.5,281C 212.443,281.305 214.443,281.305 216.5,281C 215.335,279.916 214.002,279.083 212.5,278.5C 211.548,276.955 211.215,275.288 211.5,273.5 Z"/></g>
<g><path style="opacity:1" fill="#848aad" d="M 334.5,273.5 C 335.496,273.414 336.329,273.748 337,274.5C 338.037,277.405 339.204,280.239 340.5,283C 338.717,283.232 337.05,282.732 335.5,281.5C 333.845,282.388 332.178,282.888 330.5,283C 331.739,279.781 333.072,276.614 334.5,273.5 Z"/></g>
<g><path style="opacity:1" fill="#8389ac" d="M 410.5,273.5 C 411.675,273.281 412.675,273.614 413.5,274.5C 415.475,277.374 416.142,280.374 415.5,283.5C 413.167,280.833 410.833,280.833 408.5,283.5C 408.167,283.167 407.833,282.833 407.5,282.5C 408.801,279.573 409.801,276.573 410.5,273.5 Z"/></g>
<g><path style="opacity:1" fill="#d3a570" d="M 15.5,281.5 C 16.552,281.351 17.552,281.517 18.5,282C 20.9448,286.168 22.2781,290.668 22.5,295.5C 21.5,295.5 20.5,295.5 19.5,295.5C 16.1618,294.319 12.9951,292.653 10,290.5C 8.67721,286.892 8.01054,283.225 8,279.5C 10.4356,280.355 12.9356,281.021 15.5,281.5 Z"/></g>
<g><path style="opacity:1" fill="#7f86ab" d="M 248.5,273.5 C 255.641,273.62 257.308,276.787 253.5,283C 248.16,283.989 245.66,281.822 246,276.5C 246.698,275.309 247.531,274.309 248.5,273.5 Z"/></g>
<g><path style="opacity:1" fill="#dad1d3" d="M 248.5,275.5 C 253.159,275.015 254.492,276.848 252.5,281C 247.711,281.845 246.377,280.011 248.5,275.5 Z"/></g>
<g><path style="opacity:1" fill="#878cae" d="M 376.5,273.5 C 379.434,274.289 381.268,276.289 382,279.5C 383.268,277.283 384.768,275.283 386.5,273.5C 387.833,276.833 387.833,280.167 386.5,283.5C 385.702,281.922 385.202,280.256 385,278.5C 384.252,280.332 383.252,281.999 382,283.5C 381.085,282.672 380.419,281.672 380,280.5C 379.517,281.448 379.351,282.448 379.5,283.5C 378.5,283.5 377.5,283.5 376.5,283.5C 376.5,280.167 376.5,276.833 376.5,273.5 Z"/></g>
<g><path style="opacity:1" fill="#928061" d="M 113.5,283.5 C 107.5,282.167 101.5,282.167 95.5,283.5C 94.9569,283.44 94.6236,283.107 94.5,282.5C 101.167,281.167 107.833,281.167 114.5,282.5C 114.376,283.107 114.043,283.44 113.5,283.5 Z"/></g>
<g><path style="opacity:1" fill="#8188ac" d="M 171.5,273.5 C 174.044,273.104 176.211,273.771 178,275.5C 178.688,276.332 178.521,276.998 177.5,277.5C 174.761,274.536 172.761,274.869 171.5,278.5C 172.761,282.131 174.761,282.464 177.5,279.5C 178.594,280.868 178.26,282.035 176.5,283C 170.498,283.993 168.332,281.493 170,275.5C 170.717,274.956 171.217,274.289 171.5,273.5 Z"/></g>
<g><path style="opacity:1" fill="#7f86ab" d="M 303.5,273.5 C 306.346,273.03 308.679,273.863 310.5,276C 308.5,276 306.5,276 304.5,276C 302.633,279.641 303.633,281.308 307.5,281C 307.043,280.586 306.709,280.086 306.5,279.5C 307.689,278.571 309.022,278.238 310.5,278.5C 310.66,280.199 310.494,281.866 310,283.5C 301.753,284.396 299.587,281.063 303.5,273.5 Z"/></g>
<g><path style="opacity:1" fill="#d0a36f" d="M 113.5,283.5 C 111.451,286.251 108.618,287.584 105,287.5C 101.199,287.408 98.0323,286.074 95.5,283.5C 101.5,282.167 107.5,282.167 113.5,283.5 Z"/></g>
<g><path style="opacity:1" fill="#8087ab" d="M 225.5,273.5 C 226.931,273.881 227.764,274.881 228,276.5C 233.34,272.431 233.84,273.098 229.5,278.5C 233.545,283.619 233.045,284.285 228,280.5C 227.751,281.624 227.251,282.624 226.5,283.5C 225.513,280.232 225.18,276.898 225.5,273.5 Z"/></g>
<g><path style="opacity:1" fill="#7c84aa" d="M 322.5,281.5 C 324.225,281.843 324.725,282.843 324,284.5C 322.961,283.756 322.461,282.756 322.5,281.5 Z"/></g>
<g><path style="opacity:1" fill="#878dae" d="M 399.5,281.5 C 401.97,282.36 402.137,283.694 400,285.5C 399.51,284.207 399.343,282.873 399.5,281.5 Z"/></g>
<g><path style="opacity:1" fill="#d4a670" d="M 31.5,298.5 C 29.8527,294.024 28.8527,289.357 28.5,284.5C 38.2487,286.187 47.9154,288.353 57.5,291C 77.8758,293.255 98.2091,295.755 118.5,298.5C 119.391,301.778 120.224,305.111 121,308.5C 121.718,309.451 122.551,309.617 123.5,309C 133.299,296.552 142.966,284.052 152.5,271.5C 153.521,272.002 153.688,272.668 153,273.5C 143.64,286.027 134.473,298.694 125.5,311.5C 124.441,312.696 123.107,313.363 121.5,313.5C 91.4221,308.68 61.4221,303.68 31.5,298.5 Z"/></g>
<g><path style="opacity:1" fill="#495351" d="M 30.5,282.5 C 38.8629,284.507 47.1962,286.674 55.5,289C 76.8594,291.391 98.1927,293.891 119.5,296.5C 119.167,297.167 118.833,297.833 118.5,298.5C 98.2091,295.755 77.8758,293.255 57.5,291C 47.9154,288.353 38.2487,286.187 28.5,284.5C 29.1667,283.833 29.8333,283.167 30.5,282.5 Z"/></g>
<g><path style="opacity:1" fill="#334c53" d="M 168.5,267.5 C 170.415,267.216 172.081,267.549 173.5,268.5C 168.113,268.405 162.78,268.905 157.5,270C 146.989,285.355 135.989,300.355 124.5,315C 92.9062,311.397 61.5729,306.23 30.5,299.5C 30.5,298.833 30.8333,298.5 31.5,298.5C 61.4221,303.68 91.4221,308.68 121.5,313.5C 123.107,313.363 124.441,312.696 125.5,311.5C 134.473,298.694 143.64,286.027 153,273.5C 153.688,272.668 153.521,272.002 152.5,271.5C 142.966,284.052 133.299,296.552 123.5,309C 122.551,309.617 121.718,309.451 121,308.5C 120.224,305.111 119.391,301.778 118.5,298.5C 118.833,297.833 119.167,297.167 119.5,296.5C 123.878,289.942 128.878,283.776 134.5,278C 130.886,278.696 127.219,279.53 123.5,280.5C 137.435,272.747 152.435,268.413 168.5,267.5 Z"/></g>
<g><path style="opacity:1" fill="#cac4c4" d="M 132.5,288.5 C 132.5,289.167 132.5,289.833 132.5,290.5C 134.914,289.089 136.581,287.089 137.5,284.5C 141.218,280.759 144.718,276.759 148,272.5C 148.667,273.167 148.667,273.833 148,274.5C 139.667,285.167 131.333,295.833 123,306.5C 121.439,303.694 120.772,300.694 121,297.5C 126.621,290.423 132.121,283.257 137.5,276C 138.167,275.333 138.833,275.333 139.5,276C 135.357,281.644 131.024,287.144 126.5,292.5C 126.667,292.833 126.833,293.167 127,293.5C 128.704,291.627 130.537,289.96 132.5,288.5 Z"/></g>
<g><path style="opacity:1" fill="#435b62" d="M 132.5,290.5 C 130.217,293.797 127.884,297.131 125.5,300.5C 124.998,301.521 124.332,301.688 123.5,301C 125.926,296.963 128.926,293.463 132.5,290.5 Z"/></g>
<g><path style="opacity:1" fill="#4a6168" d="M 137.5,284.5 C 136.581,287.089 134.914,289.089 132.5,290.5C 132.5,289.833 132.5,289.167 132.5,288.5C 134.167,287.167 135.833,285.833 137.5,284.5 Z"/></g>
<g><path style="opacity:1" fill="#c7c2c2" d="M 137.5,284.5 C 135.833,285.833 134.167,287.167 132.5,288.5C 135.71,283.11 139.544,278.11 144,273.5C 144.667,274.167 144.667,274.833 144,275.5C 141.59,278.397 139.423,281.397 137.5,284.5 Z"/></g>
<g><path style="opacity:1" fill="#2e464b" d="M 106.5,301.5 C 108.527,301.338 110.527,301.505 112.5,302C 114.211,303.133 114.711,304.633 114,306.5C 111.599,307.602 109.099,307.769 106.5,307C 103.892,305.063 103.892,303.23 106.5,301.5 Z"/></g>
</svg>
